<svg width="1000" height="1000" version="1.1" xmlns="http://www.w3.org/2000/svg" desc="Created with imagetracer.js version 1.2.6" ><path fill="rgb(0,0,0)" stroke="rgb(0,0,0)" stroke-width="1" opacity="0.7568627450980392" d="M 726.5 136 L 739 136.5 L 726.5 137 L 726.5 136 Z " /><path fill="rgb(0,0,0)" stroke="rgb(0,0,0)" stroke-width="1" opacity="0.7568627450980392" d="M 716.5 137 L 720 137.5 L 716.5 138 L 716.5 137 Z " /><path fill="rgb(0,0,0)" stroke="rgb(0,0,0)" stroke-width="1" opacity="0.7568627450980392" d="M 745.5 137 L 749 137.5 L 745.5 138 L 745.5 137 Z " /><path fill="rgb(0,0,0)" stroke="rgb(0,0,0)" stroke-width="1" opacity="0.7568627450980392" d="M 710.5 138 L 713 138.5 L 710.5 139 L 710.5 138 Z " /><path fill="rgb(0,0,0)" stroke="rgb(0,0,0)" stroke-width="1" opacity="0.7568627450980392" d="M 752.5 138 L 755 138.5 L 752.5 139 L 752.5 138 Z " /><path fill="rgb(0,0,0)" stroke="rgb(0,0,0)" stroke-width="1" opacity="0.7568627450980392" d="M 705.5 139 L 708 139.5 L 705.5 140 L 705.5 139 Z " /><path fill="rgb(0,0,0)" stroke="rgb(0,0,0)" stroke-width="1" opacity="0.7568627450980392" d="M 785.5 149 L 786.5 151 L 785.5 149 Z " /><path fill="rgb(0,0,0)" stroke="rgb(0,0,0)" stroke-width="1" opacity="0.7568627450980392" d="M 675.5 151 L 674.5 153 L 675.5 151 Z " /><path fill="rgb(0,0,0)" stroke="rgb(0,0,0)" stroke-width="1" opacity="0.7568627450980392" d="M 796.5 156 L 797.5 158 L 796.5 156 Z " /><path fill="rgb(0,0,0)" stroke="rgb(0,0,0)" stroke-width="1" opacity="0.7568627450980392" d="M 666.5 157 L 665.5 159 L 666.5 157 Z " /><path fill="rgb(0,0,0)" stroke="rgb(0,0,0)" stroke-width="1" opacity="0.7568627450980392" d="M 799.5 158 L 801.5 161 L 799.5 158 Z " /><path fill="rgb(0,0,0)" stroke="rgb(0,0,0)" stroke-width="1" opacity="0.7568627450980392" d="M 662.5 160 L 657.5 166 L 662.5 160 Z " /><path fill="rgb(0,0,0)" stroke="rgb(0,0,0)" stroke-width="1" opacity="0.7568627450980392" d="M 173.5 163 L 176 163.5 L 173.5 164 L 173.5 163 Z " /><path fill="rgb(0,0,0)" stroke="rgb(0,0,0)" stroke-width="1" opacity="0.7568627450980392" d="M 572.5 163 L 575 163.5 L 572.5 164 L 572.5 163 Z " /><path fill="rgb(0,0,0)" stroke="rgb(0,0,0)" stroke-width="1" opacity="0.7568627450980392" d="M 805.5 163 L 811.5 170 L 805.5 163 Z " /><path fill="rgb(0,0,0)" stroke="rgb(0,0,0)" stroke-width="1" opacity="0.7568627450980392" d="M 583.5 167 L 584.5 169 L 583.5 167 Z " /><path fill="rgb(0,0,0)" stroke="rgb(0,0,0)" stroke-width="1" opacity="0.7568627450980392" d="M 163.5 168 L 162.5 170 L 163.5 168 Z " /><path fill="rgb(0,0,0)" stroke="rgb(0,0,0)" stroke-width="1" opacity="0.7568627450980392" d="M 654.5 168 L 649.5 174 L 654.5 168 Z " /><path fill="rgb(0,0,0)" stroke="rgb(0,0,0)" stroke-width="1" opacity="0.7568627450980392" d="M 722.5 169 L 726 169.5 L 722.5 170 L 722.5 169 Z " /><path fill="rgb(0,0,0)" stroke="rgb(0,0,0)" stroke-width="1" opacity="0.7568627450980392" d="M 739.5 169 L 743 169.5 L 739.5 170 L 739.5 169 Z " /><path fill="rgb(0,0,0)" stroke="rgb(0,0,0)" stroke-width="1" opacity="0.7568627450980392" d="M 158.5 173 L 157.5 175 L 158.5 173 Z " /><path fill="rgb(0,0,0)" stroke="rgb(0,0,0)" stroke-width="1" opacity="0.7568627450980392" d="M 590.5 174 L 591.5 176 L 590.5 174 Z " /><path fill="rgb(0,0,0)" stroke="rgb(0,0,0)" stroke-width="1" opacity="0.7568627450980392" d="M 815.5 174 L 817.5 177 L 815.5 174 Z " /><path fill="rgb(0,0,0)" stroke="rgb(0,0,0)" stroke-width="1" opacity="0.7568627450980392" d="M 156.5 176 L 155.5 178 L 156.5 176 Z " /><path fill="rgb(0,0,0)" stroke="rgb(0,0,0)" stroke-width="1" opacity="0.7568627450980392" d="M 647.5 176 L 646.5 178 L 647.5 176 Z " /><path fill="rgb(0,0,0)" stroke="rgb(0,0,0)" stroke-width="1" opacity="0.7568627450980392" d="M 696.5 178 L 695.5 180 L 696.5 178 Z " /><path fill="rgb(0,0,0)" stroke="rgb(0,0,0)" stroke-width="1" opacity="0.7568627450980392" d="M 767.5 178 L 768.5 180 L 767.5 178 Z " /><path fill="rgb(0,0,0)" stroke="rgb(0,0,0)" stroke-width="1" opacity="0.7568627450980392" d="M 818.5 178 L 819.5 180 L 818.5 178 Z " /><path fill="rgb(0,0,0)" stroke="rgb(0,0,0)" stroke-width="1" opacity="0.7568627450980392" d="M 644.5 180 L 643.5 182 L 644.5 180 Z " /><path fill="rgb(0,0,0)" stroke="rgb(0,0,0)" stroke-width="1" opacity="0.7568627450980392" d="M 693.5 180 L 692.5 182 L 693.5 180 Z " /><path fill="rgb(0,0,0)" stroke="rgb(0,0,0)" stroke-width="1" opacity="0.7568627450980392" d="M 770.5 180 L 771.5 182 L 770.5 180 Z " /><path fill="rgb(0,0,0)" stroke="rgb(0,0,0)" stroke-width="1" opacity="0.7568627450980392" d="M 690.5 182 L 688.5 185 L 690.5 182 Z " /><path fill="rgb(0,0,0)" stroke="rgb(0,0,0)" stroke-width="1" opacity="0.7568627450980392" d="M 773.5 182 L 775.5 185 L 773.5 182 Z " /><path fill="rgb(0,0,0)" stroke="rgb(0,0,0)" stroke-width="1" opacity="0.7568627450980392" d="M 821.5 182 L 822.5 184 L 821.5 182 Z " /><path fill="rgb(0,0,0)" stroke="rgb(0,0,0)" stroke-width="1" opacity="0.7568627450980392" d="M 642.5 183 L 641.5 185 L 642.5 183 Z " /><path fill="rgb(0,0,0)" stroke="rgb(0,0,0)" stroke-width="1" opacity="0.7568627450980392" d="M 595.5 186 L 596 193.5 L 595 193.5 L 595.5 186 Z " /><path fill="rgb(0,0,0)" stroke="rgb(0,0,0)" stroke-width="1" opacity="0.7568627450980392" d="M 152.5 187 L 153 192.5 L 152 192.5 L 152.5 187 Z " /><path fill="rgb(0,0,0)" stroke="rgb(0,0,0)" stroke-width="1" opacity="0.7568627450980392" d="M 779.5 187 L 781.5 190 L 779.5 187 Z " /><path fill="rgb(0,0,0)" stroke="rgb(0,0,0)" stroke-width="1" opacity="0.7568627450980392" d="M 824.5 187 L 825.5 189 L 824.5 187 Z " /><path fill="rgb(0,0,0)" stroke="rgb(0,0,0)" stroke-width="1" opacity="0.7568627450980392" d="M 637.5 192 L 637 193.5 L 636.5 195 L 636 193.5 L 637.5 192 Z " /><path fill="rgb(0,0,0)" stroke="rgb(0,0,0)" stroke-width="1" opacity="0.7568627450980392" d="M 680.5 192 L 678.5 195 L 680.5 192 Z " /><path fill="rgb(0,0,0)" stroke="rgb(0,0,0)" stroke-width="1" opacity="0.7568627450980392" d="M 785.5 194 L 786.5 196 L 785.5 194 Z " /><path fill="rgb(0,0,0)" stroke="rgb(0,0,0)" stroke-width="1" opacity="0.7568627450980392" d="M 788.5 198 L 789.5 200 L 788.5 198 Z " /><path fill="rgb(0,0,0)" stroke="rgb(0,0,0)" stroke-width="1" opacity="0.7568627450980392" d="M 790.5 201 L 791.5 203 L 790.5 201 Z " /><path fill="rgb(0,0,0)" stroke="rgb(0,0,0)" stroke-width="1" opacity="0.7568627450980392" d="M 673.5 202 L 672.5 204 L 673.5 202 Z " /><path fill="rgb(0,0,0)" stroke="rgb(0,0,0)" stroke-width="1" opacity="0.7568627450980392" d="M 592.5 203 L 591.5 205 L 592.5 203 Z " /><path fill="rgb(0,0,0)" stroke="rgb(0,0,0)" stroke-width="1" opacity="0.7568627450980392" d="M 157.5 206 L 164.5 214 L 157.5 206 Z " /><path fill="rgb(0,0,0)" stroke="rgb(0,0,0)" stroke-width="1" opacity="0.7568627450980392" d="M 590.5 206 L 588.5 209 L 590.5 206 Z " /><path fill="rgb(0,0,0)" stroke="rgb(0,0,0)" stroke-width="1" opacity="0.7568627450980392" d="M 585.5 211 L 583.5 214 L 585.5 211 Z " /><path fill="rgb(0,0,0)" stroke="rgb(0,0,0)" stroke-width="1" opacity="0.7568627450980392" d="M 629.5 213 L 630 215.5 L 629 215.5 L 629.5 213 Z " /><path fill="rgb(0,0,0)" stroke="rgb(0,0,0)" stroke-width="1" opacity="0.7568627450980392" d="M 581.5 214 L 580.5 216 L 579 215.5 L 581.5 214 Z " /><path fill="rgb(0,0,0)" stroke="rgb(0,0,0)" stroke-width="1" opacity="0.7568627450980392" d="M 177.5 218 L 341.5 218 L 342 218.5 L 342 764.5 L 341 764.5 L 341 219.5 L 340.5 219 L 177.5 219 L 177.5 218 Z " /><path fill="rgb(0,0,0)" stroke="rgb(0,0,0)" stroke-width="1" opacity="0.7568627450980392" d="M 406.5 218 L 571 218.5 L 406 219 L 405.5 768 L 405 219.5 L 406.5 218 Z " /><path fill="rgb(0,0,0)" stroke="rgb(0,0,0)" stroke-width="1" opacity="0.7568627450980392" d="M 628.5 218 L 629 220.5 L 628 220.5 L 628.5 218 Z " /><path fill="rgb(0,0,0)" stroke="rgb(0,0,0)" stroke-width="1" opacity="0.7568627450980392" d="M 665.5 221 L 666 223.5 L 665 223.5 L 665.5 221 Z " /><path fill="rgb(0,0,0)" stroke="rgb(0,0,0)" stroke-width="1" opacity="0.7568627450980392" d="M 627.5 224 L 628 227.5 L 627 227.5 L 627.5 224 Z " /><path fill="rgb(0,0,0)" stroke="rgb(0,0,0)" stroke-width="1" opacity="0.7568627450980392" d="M 837.5 225 L 838 228.5 L 837 228.5 L 837.5 225 Z " /><path fill="rgb(0,0,0)" stroke="rgb(0,0,0)" stroke-width="1" opacity="0.7568627450980392" d="M 664.5 226 L 665 228.5 L 664 228.5 L 664.5 226 Z " /><path fill="rgb(0,0,0)" stroke="rgb(0,0,0)" stroke-width="1" opacity="0.7568627450980392" d="M 800.5 226 L 801 229.5 L 800 229.5 L 800.5 226 Z " /><path fill="rgb(0,0,0)" stroke="rgb(0,0,0)" stroke-width="1" opacity="0.7568627450980392" d="M 663.5 234 L 664 243.5 L 663 243.5 L 663.5 234 Z " /><path fill="rgb(0,0,0)" stroke="rgb(0,0,0)" stroke-width="1" opacity="0.7568627450980392" d="M 801.5 234 L 802 248.5 L 801 248.5 L 801.5 234 Z " /><path fill="rgb(0,0,0)" stroke="rgb(0,0,0)" stroke-width="1" opacity="0.7568627450980392" d="M 626.5 236 L 627 244.5 L 626 244.5 L 626.5 236 Z " /><path fill="rgb(0,0,0)" stroke="rgb(0,0,0)" stroke-width="1" opacity="0.7568627450980392" d="M 838.5 237 L 839 244.5 L 838 244.5 L 838.5 237 Z " /><path fill="rgb(0,0,0)" stroke="rgb(0,0,0)" stroke-width="1" opacity="0.7568627450980392" d="M 629.5 252 L 634.5 258 L 629.5 252 Z " /><path fill="rgb(0,0,0)" stroke="rgb(0,0,0)" stroke-width="1" opacity="0.7568627450980392" d="M 659.5 253 L 656.5 257 L 659.5 253 Z " /><path fill="rgb(0,0,0)" stroke="rgb(0,0,0)" stroke-width="1" opacity="0.7568627450980392" d="M 800.5 254 L 801 256.5 L 800 256.5 L 800.5 254 Z " /><path fill="rgb(0,0,0)" stroke="rgb(0,0,0)" stroke-width="1" opacity="0.7568627450980392" d="M 837.5 254 L 838 257.5 L 837 257.5 L 837.5 254 Z " /><path fill="rgb(0,0,0)" stroke="rgb(0,0,0)" stroke-width="1" opacity="0.7568627450980392" d="M 654.5 257 L 653.5 259 L 654.5 257 Z " /><path fill="rgb(0,0,0)" stroke="rgb(0,0,0)" stroke-width="1" opacity="0.7568627450980392" d="M 641.5 260 L 648 260.5 L 641.5 261 L 641.5 260 Z " /><path fill="rgb(0,0,0)" stroke="rgb(0,0,0)" stroke-width="1" opacity="0.7568627450980392" d="M 836.5 262 L 837 264.5 L 836 264.5 L 836.5 262 Z " /><path fill="rgb(0,0,0)" stroke="rgb(0,0,0)" stroke-width="1" opacity="0.7568627450980392" d="M 835.5 267 L 836 269.5 L 835 269.5 L 835.5 267 Z " /><path fill="rgb(0,0,0)" stroke="rgb(0,0,0)" stroke-width="1" opacity="0.7568627450980392" d="M 786.5 293 L 785.5 295 L 786.5 293 Z " /><path fill="rgb(0,0,0)" stroke="rgb(0,0,0)" stroke-width="1" opacity="0.7568627450980392" d="M 783.5 298 L 782.5 300 L 783.5 298 Z " /><path fill="rgb(0,0,0)" stroke="rgb(0,0,0)" stroke-width="1" opacity="0.7568627450980392" d="M 781.5 301 L 780.5 303 L 781.5 301 Z " /><path fill="rgb(0,0,0)" stroke="rgb(0,0,0)" stroke-width="1" opacity="0.7568627450980392" d="M 779.5 304 L 778.5 306 L 779.5 304 Z " /><path fill="rgb(0,0,0)" stroke="rgb(0,0,0)" stroke-width="1" opacity="0.7568627450980392" d="M 777.5 307 L 776.5 309 L 777.5 307 Z " /><path fill="rgb(0,0,0)" stroke="rgb(0,0,0)" stroke-width="1" opacity="0.7568627450980392" d="M 774.5 311 L 773.5 313 L 774.5 311 Z " /><path fill="rgb(0,0,0)" stroke="rgb(0,0,0)" stroke-width="1" opacity="0.7568627450980392" d="M 771.5 315 L 770.5 317 L 771.5 315 Z " /><path fill="rgb(0,0,0)" stroke="rgb(0,0,0)" stroke-width="1" opacity="0.7568627450980392" d="M 816.5 315 L 815.5 317 L 816.5 315 Z " /><path fill="rgb(0,0,0)" stroke="rgb(0,0,0)" stroke-width="1" opacity="0.7568627450980392" d="M 768.5 319 L 766.5 322 L 768.5 319 Z " /><path fill="rgb(0,0,0)" stroke="rgb(0,0,0)" stroke-width="1" opacity="0.7568627450980392" d="M 764.5 324 L 762.5 327 L 764.5 324 Z " /><path fill="rgb(0,0,0)" stroke="rgb(0,0,0)" stroke-width="1" opacity="0.7568627450980392" d="M 808.5 327 L 807.5 329 L 808.5 327 Z " /><path fill="rgb(0,0,0)" stroke="rgb(0,0,0)" stroke-width="1" opacity="0.7568627450980392" d="M 760.5 329 L 757.5 333 L 760.5 329 Z " /><path fill="rgb(0,0,0)" stroke="rgb(0,0,0)" stroke-width="1" opacity="0.7568627450980392" d="M 806.5 330 L 804.5 333 L 806.5 330 Z " /><path fill="rgb(0,0,0)" stroke="rgb(0,0,0)" stroke-width="1" opacity="0.7568627450980392" d="M 803.5 334 L 802.5 336 L 803.5 334 Z " /><path fill="rgb(0,0,0)" stroke="rgb(0,0,0)" stroke-width="1" opacity="0.7568627450980392" d="M 755.5 335 L 752.5 339 L 755.5 335 Z " /><path fill="rgb(0,0,0)" stroke="rgb(0,0,0)" stroke-width="1" opacity="0.7568627450980392" d="M 800.5 338 L 798.5 341 L 800.5 338 Z " /><path fill="rgb(0,0,0)" stroke="rgb(0,0,0)" stroke-width="1" opacity="0.7568627450980392" d="M 749.5 342 L 744.5 348 L 749.5 342 Z " /><path fill="rgb(0,0,0)" stroke="rgb(0,0,0)" stroke-width="1" opacity="0.7568627450980392" d="M 796.5 343 L 795.5 345 L 796.5 343 Z " /><path fill="rgb(0,0,0)" stroke="rgb(0,0,0)" stroke-width="1" opacity="0.7568627450980392" d="M 793.5 347 L 791.5 350 L 793.5 347 Z " /><path fill="rgb(0,0,0)" stroke="rgb(0,0,0)" stroke-width="1" opacity="0.7568627450980392" d="M 740.5 352 L 733.5 360 L 740.5 352 Z " /><path fill="rgb(0,0,0)" stroke="rgb(0,0,0)" stroke-width="1" opacity="0.7568627450980392" d="M 788.5 353 L 786.5 356 L 788.5 353 Z " /><path fill="rgb(0,0,0)" stroke="rgb(0,0,0)" stroke-width="1" opacity="0.7568627450980392" d="M 783.5 359 L 781.5 362 L 783.5 359 Z " /><path fill="rgb(0,0,0)" stroke="rgb(0,0,0)" stroke-width="1" opacity="0.7568627450980392" d="M 777.5 366 L 774.5 370 L 777.5 366 Z " /><path fill="rgb(0,0,0)" stroke="rgb(0,0,0)" stroke-width="1" opacity="0.7568627450980392" d="M 725.5 368 L 701.5 393 L 725.5 368 Z " /><path fill="rgb(0,0,0)" stroke="rgb(0,0,0)" stroke-width="1" opacity="0.7568627450980392" d="M 770.5 374 L 764.5 381 L 770.5 374 Z " /><path fill="rgb(0,0,0)" stroke="rgb(0,0,0)" stroke-width="1" opacity="0.7568627450980392" d="M 759.5 386 L 698.5 448 L 759.5 386 Z " /><path fill="rgb(0,0,0)" stroke="rgb(0,0,0)" stroke-width="1" opacity="0.7568627450980392" d="M 666.5 427 L 657.5 437 L 666.5 427 Z " /><path fill="rgb(0,0,0)" stroke="rgb(0,0,0)" stroke-width="1" opacity="0.7568627450980392" d="M 653.5 441 L 649.5 446 L 653.5 441 Z " /><path fill="rgb(0,0,0)" stroke="rgb(0,0,0)" stroke-width="1" opacity="0.7568627450980392" d="M 646.5 449 L 644.5 452 L 646.5 449 Z " /><path fill="rgb(0,0,0)" stroke="rgb(0,0,0)" stroke-width="1" opacity="0.7568627450980392" d="M 694.5 452 L 690.5 457 L 694.5 452 Z " /><path fill="rgb(0,0,0)" stroke="rgb(0,0,0)" stroke-width="1" opacity="0.7568627450980392" d="M 641.5 455 L 640.5 457 L 641.5 455 Z " /><path fill="rgb(0,0,0)" stroke="rgb(0,0,0)" stroke-width="1" opacity="0.7568627450980392" d="M 638.5 459 L 637.5 461 L 638.5 459 Z " /><path fill="rgb(0,0,0)" stroke="rgb(0,0,0)" stroke-width="1" opacity="0.7568627450980392" d="M 687.5 460 L 684.5 464 L 687.5 460 Z " /><path fill="rgb(0,0,0)" stroke="rgb(0,0,0)" stroke-width="1" opacity="0.7568627450980392" d="M 635.5 463 L 634.5 465 L 635.5 463 Z " /><path fill="rgb(0,0,0)" stroke="rgb(0,0,0)" stroke-width="1" opacity="0.7568627450980392" d="M 633.5 466 L 632.5 468 L 633.5 466 Z " /><path fill="rgb(0,0,0)" stroke="rgb(0,0,0)" stroke-width="1" opacity="0.7568627450980392" d="M 682.5 466 L 681.5 468 L 682.5 466 Z " /><path fill="rgb(0,0,0)" stroke="rgb(0,0,0)" stroke-width="1" opacity="0.7568627450980392" d="M 631.5 469 L 630.5 471 L 631.5 469 Z " /><path fill="rgb(0,0,0)" stroke="rgb(0,0,0)" stroke-width="1" opacity="0.7568627450980392" d="M 679.5 470 L 677.5 473 L 679.5 470 Z " /><path fill="rgb(0,0,0)" stroke="rgb(0,0,0)" stroke-width="1" opacity="0.7568627450980392" d="M 629.5 472 L 628.5 474 L 629.5 472 Z " /><path fill="rgb(0,0,0)" stroke="rgb(0,0,0)" stroke-width="1" opacity="0.7568627450980392" d="M 676.5 474 L 675.5 476 L 676.5 474 Z " /><path fill="rgb(0,0,0)" stroke="rgb(0,0,0)" stroke-width="1" opacity="0.7568627450980392" d="M 675.5 477 L 836 477.5 L 675.5 478 L 675.5 477 Z " /><path fill="rgb(0,0,0)" stroke="rgb(0,0,0)" stroke-width="1" opacity="0.7568627450980392" d="M 840.5 479 L 841.5 481 L 840.5 479 Z " /><path fill="rgb(0,0,0)" stroke="rgb(0,0,0)" stroke-width="1" opacity="0.7568627450980392" d="M 624.5 481 L 624 482.5 L 623.5 484 L 623 482.5 L 624.5 481 Z " /><path fill="rgb(0,0,0)" stroke="rgb(0,0,0)" stroke-width="1" opacity="0.7568627450980392" d="M 844.5 483 L 845.5 485 L 844.5 483 Z " /><path fill="rgb(0,0,0)" stroke="rgb(0,0,0)" stroke-width="1" opacity="0.7568627450980392" d="M 624.5 501 L 629.5 507 L 624.5 501 Z " /><path fill="rgb(0,0,0)" stroke="rgb(0,0,0)" stroke-width="1" opacity="0.7568627450980392" d="M 844.5 503 L 841.5 507 L 844.5 503 Z " /><path fill="rgb(0,0,0)" stroke="rgb(0,0,0)" stroke-width="1" opacity="0.7568627450980392" d="M 636.5 509 L 835 509.5 L 636.5 510 L 636.5 509 Z " /><path fill="rgb(0,0,0)" stroke="rgb(0,0,0)" stroke-width="1" opacity="0.7568627450980392" d="M 346.5 780 L 347.5 782 L 346.5 780 Z " /><path fill="rgb(0,0,0)" stroke="rgb(0,0,0)" stroke-width="1" opacity="0.7568627450980392" d="M 400.5 781 L 399.5 783 L 400.5 781 Z " /><path fill="rgb(0,0,0)" stroke="rgb(0,0,0)" stroke-width="1" opacity="0.7568627450980392" d="M 349.5 784 L 353.5 789 L 349.5 784 Z " /><path fill="rgb(0,0,0)" stroke="rgb(0,0,0)" stroke-width="1" opacity="0.7568627450980392" d="M 396.5 786 L 395.5 788 L 396.5 786 Z " /><path fill="rgb(0,0,0)" stroke="rgb(0,0,0)" stroke-width="1" opacity="0.7568627450980392" d="M 392.5 789 L 391.5 791 L 392.5 789 Z " /><path fill="rgb(0,0,0)" stroke="rgb(0,0,0)" stroke-width="1" opacity="0.7568627450980392" d="M 358.5 791 L 359.5 793 L 358.5 791 Z " /><path fill="rgb(0,0,0)" stroke="rgb(0,0,0)" stroke-width="1" opacity="0.7568627450980392" d="M 389.5 791 L 388.5 793 L 389.5 791 Z " /><path fill="rgb(0,0,0)" stroke="rgb(0,0,0)" stroke-width="1" opacity="0.7568627450980392" d="M 368.5 795 L 380 795.5 L 368.5 796 L 368.5 795 Z " /><path fill="rgb(0,0,0)" stroke="rgb(0,0,0)" stroke-width="1" opacity="1" d="M 720.5 137 L 744.5 137 L 745.5 138 L 756.5 139 L 773.5 144 Q 798.9 154.1 815 173.5 Q 827.5 188 834 208.5 L 838 229.5 L 838 253.5 L 837 254.5 L 837 261.5 L 835 271.5 L 829 290.5 Q 821.2 309.7 810 325.5 Q 788.7 355.2 764 381.5 L 690 456.5 L 677 472.5 L 675 478 L 837.5 478 L 844 482.5 L 848 490.5 L 848 495.5 Q 846.6 503.6 840.5 507 L 836.5 509 L 634.5 509 L 624 500.5 Q 620.7 495.8 622 486.5 L 628 474.5 L 647 448.5 L 700.5 393 L 726 368.5 Q 760.1 334.6 787 293.5 L 798 268.5 L 802 248.5 L 802 234.5 L 797 212.5 Q 790.5 197.5 779.5 187 Q 768.2 176.3 751.5 171 L 742.5 169 L 722.5 169 Q 692.8 174.3 678 194.5 Q 669 205.5 665 221.5 L 662 249.5 L 655.5 257 Q 650.7 261.7 639.5 260 L 629 251.5 L 627 247.5 L 627 228.5 L 630 211.5 L 634 199.5 Q 642.3 179.8 656.5 166 Q 669.1 153.6 686.5 146 L 703.5 140 L 720.5 137 Z " /><path fill="rgb(0,0,0)" stroke="rgb(0,0,0)" stroke-width="1" opacity="1" d="M 176.5 163 L 571.5 163 Q 583.6 165.4 590 173.5 Q 597.2 180.3 595 196.5 Q 592.9 205.9 586.5 211 L 573.5 218 L 406.5 218 L 405 219.5 L 405 770.5 Q 402 782.5 393.5 789 L 381.5 795 L 366.5 795 Q 354.3 791.7 348 782.5 L 342 769.5 L 342 218 L 174.5 218 Q 162.9 214.6 157 205.5 Q 151.4 198.6 153 184.5 Q 155.1 175.1 161.5 170 Q 167.2 164.7 176.5 163 Z " /><path fill="rgb(0,0,0)" stroke="rgb(0,0,0)" stroke-width="1" opacity="0" d="M 0 0 L 1000 0 L 1000 1000 L 0 1000 L 0 0 Z M 727 136 L 726 137 L 717 137 L 706 139 L 693 143 Q 675 149 663 160 Q 646 174 636 194 L 629 214 L 627 225 L 627 236 L 626 237 L 626 245 L 629 253 Q 633 259 642 261 Q 652 262 657 257 L 663 248 Q 665 240 664 230 L 668 214 Q 673 201 681 192 Q 690 181 704 175 L 715 171 L 726 170 L 727 169 L 739 169 L 750 171 Q 765 176 777 185 Q 796 201 801 231 L 801 254 L 799 264 Q 791 290 776 310 L 733 361 L 649 446 Q 633 463 622 486 Q 620 496 624 502 Q 628 508 637 510 L 835 510 L 842 507 L 848 498 Q 850 489 846 485 Q 843 479 836 477 L 675 477 L 695 452 L 771 375 L 807 331 Q 822 311 831 287 L 837 265 L 838 246 L 839 245 L 837 220 L 831 199 Q 824 182 812 170 Q 797 153 775 144 L 749 137 L 727 136 Z M 174 163 L 164 168 L 155 178 L 152 188 Q 152 200 157 207 Q 164 216 178 219 L 341 219 L 341 765 L 343 775 L 349 785 Q 356 793 369 796 L 384 795 L 396 788 Q 404 781 406 768 L 406 219 L 571 219 L 584 214 Q 594 208 596 194 L 596 187 L 592 176 Q 586 166 575 163 L 174 163 Z " /></svg>